<svg width="32" height="32" viewBox="0 0 32 32" fill="none" xmlns="http://www.w3.org/2000/svg">
  <defs>
    <linearGradient id="gradient" x1="0%" y1="0%" x2="100%" y2="100%">
      <stop offset="0%" style="stop-color:hsl(6, 85%, 60%);stop-opacity:1" />
      <stop offset="50%" style="stop-color:hsl(198, 100%, 53%);stop-opacity:1" />
      <stop offset="100%" style="stop-color:hsl(57, 100%, 55%);stop-opacity:1" />
    </linearGradient>
  </defs>
  <circle cx="16" cy="16" r="14" fill="url(#gradient)" opacity="0.2"/>
  <path d="M12 8C8.5 8 6 10.5 6 14C6 17.5 8.5 20 12 20H20C21.5 20 22 19.5 22 18C22 16.5 21.5 16 20 16H14" stroke="url(#gradient)" stroke-width="2" fill="none" stroke-linecap="round"/>
  <path d="M18 12L22 16L18 20" stroke="url(#gradient)" stroke-width="2" fill="none" stroke-linecap="round" stroke-linejoin="round"/>
  <path d="M20 12C23.5 12 26 14.5 26 18C26 21.5 23.5 24 20 24H12C10.5 24 10 23.5 10 22C10 20.5 10.5 20 12 20H18" stroke="url(#gradient)" stroke-width="2" fill="none" stroke-linecap="round"/>
  <path d="M14 16L10 12L14 8" stroke="url(#gradient)" stroke-width="2" fill="none" stroke-linecap="round" stroke-linejoin="round"/>
</svg> 